<svg width="25" height="25" viewBox="0 0 25 25" fill="none" xmlns="http://www.w3.org/2000/svg">
<path d="M5.29688 15.5586L5.84081 17.6849" stroke="#333333" stroke-width="1.44945" stroke-linecap="round" stroke-linejoin="round"/>
<path d="M3.67969 8.93359L4.56977 12.6423" stroke="#333333" stroke-width="1.44945" stroke-linecap="round" stroke-linejoin="round"/>
<path d="M12.1256 6.95508L9.85095 10.4165C9.55426 10.8615 8.96087 11.0099 8.51583 10.7132L4.60938 8.1913" stroke="#333333" stroke-width="1.44945" stroke-linecap="round" stroke-linejoin="round"/>
<path d="M16.5785 10.6644C16.1335 10.9611 15.5401 10.8127 15.2434 10.3677L12.9688 6.90625" stroke="#333333" stroke-width="1.44945" stroke-linecap="round" stroke-linejoin="round"/>
<path d="M20.4364 8.19141L18.6562 9.32873" stroke="#333333" stroke-width="1.44945" stroke-linecap="round" stroke-linejoin="round"/>
<path d="M19.1953 17.6859L21.4205 8.78516" stroke="#333333" stroke-width="1.44945" stroke-linecap="round" stroke-linejoin="round"/>
<path d="M4.85755 7.30182C4.85755 8.12108 4.19334 8.78529 3.37409 8.78529C2.55484 8.78529 1.89062 8.12108 1.89062 7.30182C1.89062 6.48257 2.55484 5.81836 3.37409 5.81836C4.19334 5.81836 4.85755 6.48257 4.85755 7.30182Z" stroke="#333333" stroke-width="1.44945"/>
<path d="M23.1544 7.30182C23.1544 8.12108 22.4902 8.78529 21.671 8.78529C20.8517 8.78529 20.1875 8.12108 20.1875 7.30182C20.1875 6.48257 20.8517 5.81836 21.671 5.81836C22.4902 5.81836 23.1544 6.48257 23.1544 7.30182Z" stroke="#333333" stroke-width="1.44945"/>
<path d="M14.006 5.32331C14.006 6.14256 13.3418 6.80677 12.5225 6.80677C11.7033 6.80677 11.0391 6.14256 11.0391 5.32331C11.0391 4.50405 11.7033 3.83984 12.5225 3.83984C13.3418 3.83984 14.006 4.50405 14.006 5.32331Z" stroke="#333333" stroke-width="1.44945"/>
<path d="M9.26353 17.6855H19.2027V20.158C19.2027 20.7019 18.7577 21.147 18.2138 21.147H6.84054C6.2966 21.147 5.85156 20.7019 5.85156 20.158V17.6855" stroke="#333333" stroke-width="1.44945" stroke-linecap="round" stroke-linejoin="round"/>
</svg>
