<svg width="27" height="27" viewBox="0 0 27 27" fill="none" xmlns="http://www.w3.org/2000/svg">
<path d="M4.57092 16.1912C4.21947 15.8717 3.86802 15.8717 3.51657 16.1912L2.74978 16.958C2.49418 17.2136 2.43028 17.5011 2.55808 17.8206L3.89997 20.792L1.21619 23.4758C0.896688 23.8272 0.896688 24.1787 1.21619 24.5301L2.36638 25.6803C2.71783 25.9998 3.06928 25.9998 3.42072 25.6803L6.15243 22.9965L9.12376 24.3384C9.41131 24.4662 9.68289 24.4023 9.93849 24.1467L10.7053 23.3799C11.0248 23.0285 11.0248 22.677 10.7053 22.3256L4.57092 16.1912ZM21.9197 16.1912L15.7853 22.3256C15.4658 22.677 15.4658 23.0285 15.7853 23.3799L16.5521 24.1467C16.8077 24.4023 17.0952 24.4662 17.4147 24.3384L20.3861 22.9965L23.0699 25.6803C23.4213 25.9998 23.7728 25.9998 24.1242 25.6803L25.2744 24.5301C25.5939 24.1787 25.5939 23.8272 25.2744 23.4758L22.5906 20.792L23.9325 17.8206C24.0603 17.5011 23.9964 17.2136 23.7408 16.958L22.974 16.1912C22.6226 15.8717 22.2711 15.8717 21.9197 16.1912Z" fill="white"/>
<g opacity="0.4">
<path d="M0.507114 1.45333L1.20427 4.9889C1.30386 5.45367 1.53625 5.85205 1.90142 6.18403L16.8903 21.2227L21.2226 16.8903L6.18395 1.9015C5.85197 1.53633 5.45359 1.30394 4.98882 1.20435L1.45325 0.507193C1.18767 0.473995 0.955285 0.556992 0.756098 0.756178C0.556911 0.955364 0.473916 1.18775 0.507114 1.45333ZM5.28761 16.8903C5.85197 17.4547 6.39973 18.0025 6.9309 18.5336C7.82724 19.43 8.72358 20.3263 9.61993 21.2227L12.1098 18.683L7.82724 14.4005L5.28761 16.8903ZM14.4004 7.82732L18.6829 12.1098L24.6586 6.18403C24.9905 5.85205 25.2063 5.45367 25.3059 4.9889L26.0031 1.45333C26.0031 1.42014 26.0031 1.37034 26.0031 1.30394C26.0031 1.10476 25.9201 0.922167 25.7541 0.756178C25.5549 0.556992 25.3225 0.473995 25.0569 0.507193L21.5214 1.20435C21.0566 1.30394 20.6582 1.53633 20.3262 1.9015L14.4004 7.82732Z" fill="white"/>
</g>
</svg>
